<svg width="80" height="86" viewBox="0 0 80 86" fill="none" xmlns="http://www.w3.org/2000/svg">
<path d="M39.7117 0.5625C21.032 0.984376 18.9148 14.6328 22.8992 30.375C22.2742 30.7969 21.0007 32.2969 21.2117 34.8125C21.8367 39.4297 23.7273 40.6875 24.7742 40.6875C25.196 43.8359 26.6804 47.1484 28.1492 49.25C29.196 50.7188 29.5867 52.6094 29.5867 54.5C29.5867 56.1797 29.6101 55.1094 29.3992 57C29.1882 57.6094 28.8914 58.1641 28.5242 58.6875C28.9539 60.3047 31.4304 68 39.8992 68C48.571 68 50.8992 59.6953 51.1492 58.6875C50.7585 58.1719 50.446 57.6094 50.2117 57C50.0007 54.6953 49.9617 55.7656 49.9617 53.875C49.9617 52.1953 50.6179 50.7578 51.4617 49.5C52.9304 47.3984 54.3523 43.8359 54.7742 40.6875C56.0398 40.6875 57.9148 39.4297 58.3367 34.8125C58.5476 32.2969 57.5554 30.7969 56.7117 30.375C58.8132 24.5 62.7664 6.26563 49.3367 4.375C47.8679 1.85938 44.3289 0.5625 39.7117 0.5625ZM54.4617 61.5C52.782 65.9688 48.3367 72 39.8992 72C31.4539 72 27.0242 66.0781 25.2742 61.5625C16.9617 66.6797 0.0241699 68.25 0.0241699 86H79.7742C79.7742 67.7969 62.9148 66.5469 54.4617 61.5Z" fill="#8059BF"/>
</svg>
