<svg width="32" height="32" viewBox="0 0 32 32" fill="none" xmlns="http://www.w3.org/2000/svg">
<path d="M12.5 7.00049C10 7.00049 7.999 8.99999 7.999 11.5H12.5V7.00049Z" fill="url(#paint0_linear_3_31)"/>
<path d="M12.4995 5C8.915 5 5.9985 7.916 5.9985 11.501C5.9985 15.086 8.915 18.002 12.4995 18.002C16.084 18.002 19.0005 15.086 19.0005 11.501C19.0005 7.916 16.084 5 12.4995 5ZM12.4995 17.0015C9.4665 17.0015 6.999 14.534 6.999 11.501C6.999 8.468 9.4665 6.0005 12.4995 6.0005C15.5325 6.0005 18 8.468 18 11.501C18 14.534 15.5325 17.0015 12.4995 17.0015Z" fill="url(#paint1_linear_3_31)"/>
<path d="M27.385 24.2795L23.009 19.3475C22.6495 18.9415 22.0115 18.8875 21.5865 19.226L20.3435 20.2125L18.281 17.7155C19.9495 16.1625 21.0005 13.955 21.0005 11.501C21.0005 6.8135 17.187 3 12.4995 3C7.812 3 3.9985 6.8135 3.9985 11.501C3.9985 16.1885 7.812 20.002 12.4995 20.002C14.374 20.002 16.103 19.385 17.51 18.353L19.5595 20.8345L18.3765 21.773C18.1595 21.945 18.0275 22.189 18.0035 22.46C17.98 22.7295 18.067 22.99 18.2485 23.1945L22.625 28.127C23.136 28.703 23.8695 29 24.6075 29C25.192 29 25.7795 28.8135 26.261 28.4315L27.0645 27.7945C27.6045 27.3655 27.934 26.7605 27.9925 26.0915C28.05 25.4295 27.8345 24.786 27.385 24.2795ZM4.9985 11.501C4.9985 7.365 8.3635 4 12.4995 4C16.6355 4 20.0005 7.365 20.0005 11.501C20.0005 15.637 16.636 19.002 12.4995 19.002C8.363 19.002 4.9985 15.637 4.9985 11.501ZM24.321 22.333L21.0875 24.8995L20.349 24.0715L23.585 21.5035L24.321 22.333ZM22.209 20.009C22.2155 20.004 22.224 20.002 22.2335 20.002C22.2445 20.002 22.256 20.0055 22.261 20.011L22.9205 20.7545L19.6825 23.324L18.9985 22.557L22.209 20.009ZM26.4425 27.011L25.639 27.648C24.9585 28.1885 23.942 28.1055 23.373 27.4635L21.7535 25.6475L24.9855 23.0825L26.637 24.9435C26.902 25.2425 27.0295 25.619 26.996 26.0045C26.962 26.3975 26.765 26.755 26.4425 27.011Z" fill="url(#paint2_linear_3_31)"/>
<defs>
<linearGradient id="paint0_linear_3_31" x1="10.2495" y1="6.50049" x2="10.2495" y2="11.792" gradientUnits="userSpaceOnUse">
<stop stop-color="#6DC7FF"/>
<stop offset="1" stop-color="#E6ABFF"/>
</linearGradient>
<linearGradient id="paint1_linear_3_31" x1="12.2555" y1="2.635" x2="13.0055" y2="29.8885" gradientUnits="userSpaceOnUse">
<stop stop-color="#1A6DFF"/>
<stop offset="1" stop-color="#C822FF"/>
</linearGradient>
<linearGradient id="paint2_linear_3_31" x1="15.5545" y1="2.5445" x2="16.3045" y2="29.7975" gradientUnits="userSpaceOnUse">
<stop stop-color="#1A6DFF"/>
<stop offset="1" stop-color="#C822FF"/>
</linearGradient>
</defs>
</svg>
