<svg width="25" height="25" viewBox="0 0 25 25" fill="none" xmlns="http://www.w3.org/2000/svg">
<g clip-path="url(#clip0_51_77)">
<path d="M19.4529 25C19.2503 24.9995 19.0508 24.9473 18.8716 24.848L12.5 21.3355L6.12837 24.848C5.92206 24.9613 5.68966 25.0119 5.45737 24.9942C5.22508 24.9764 5.00214 24.891 4.81368 24.7475C4.62523 24.604 4.47875 24.4082 4.39077 24.1821C4.3028 23.956 4.27681 23.7086 4.31576 23.4679L5.53208 16.0288L0.37677 10.76C0.209997 10.5893 0.0920702 10.3731 0.0363051 10.1358C-0.0194601 9.89857 -0.0108423 9.64968 0.0611855 9.41726C0.133213 9.18485 0.265782 8.97818 0.443923 8.82059C0.622063 8.663 0.838679 8.56076 1.06931 8.52543L8.19349 7.44023L11.3799 0.672154C11.4947 0.467488 11.6585 0.297806 11.8551 0.179912C12.0516 0.0620176 12.2742 0 12.5006 0C12.7271 0 12.9496 0.0620176 13.1462 0.179912C13.3427 0.297806 13.5065 0.467488 13.6213 0.672154L16.8065 7.44023L23.9307 8.52543C24.1613 8.56076 24.3779 8.663 24.5561 8.82059C24.7342 8.97818 24.8668 9.18485 24.9388 9.41726C25.0108 9.64968 25.0195 9.89857 24.9637 10.1358C24.9079 10.3731 24.79 10.5893 24.6232 10.76L19.4679 16.0288L20.6855 23.4679C20.7162 23.6559 20.7075 23.8487 20.6598 24.0329C20.6121 24.217 20.5266 24.388 20.4094 24.5339C20.2921 24.6798 20.1459 24.7971 19.9809 24.8776C19.8159 24.9581 19.6349 24.9999 19.4529 25Z" fill="#E4D3FF"/>
<path fill-rule="evenodd" clip-rule="evenodd" d="M0 9.82227C0 9.82228 0 9.82229 0 9.8223C1.1232e-06 9.92747 0.0120762 10.0328 0.0363051 10.1358C0.0920702 10.3731 0.209997 10.5893 0.37677 10.76L5.53208 16.0288L4.31576 23.4679C4.27681 23.7086 4.3028 23.956 4.39077 24.1821C4.47875 24.4082 4.62523 24.604 4.81368 24.7475C5.00214 24.891 5.22508 24.9764 5.45737 24.9942C5.68966 25.0119 5.92206 24.9613 6.12837 24.848L12.5 21.3355L12.5 0C12.2738 0.000114284 12.0515 0.0621261 11.8551 0.179912C11.6585 0.297806 11.4947 0.467487 11.3799 0.672154L8.19349 7.44023L1.06931 8.52543C0.838679 8.56076 0.622063 8.663 0.443923 8.82059C0.265782 8.97818 0.133213 9.18485 0.0611855 9.41726C0.0204553 9.54869 1.46186e-06 9.68538 0 9.82227Z" fill="#8847F2"/>
</g>
<defs>
<clipPath id="clip0_51_77">
<rect width="25" height="25" fill="white"/>
</clipPath>
</defs>
</svg>
